<?xml version="1.0" encoding="UTF-8"?><svg version="1.1" width="1920px" height="447px" viewBox="0 0 1920.0 447.0" xmlns="http://www.w3.org/2000/svg" xmlns:xlink="http://www.w3.org/1999/xlink"><defs><clipPath id="i0"><path d="M1920,0 L1920,447 L0,447 L0,0 L1920,0 Z"></path></clipPath><linearGradient id="i1" x1="-83.1552px" y1="446.993154px" x2="2135.712px" y2="-24.4042148px" gradientUnits="userSpaceOnUse"><stop stop-color="#FD9253" offset="0%"></stop><stop stop-color="#F1716B" offset="45.2427366%"></stop><stop stop-color="#E75380" offset="100%"></stop></linearGradient><clipPath id="i2"><path d="M1259,0 C1259,760.654 831.06,1007 495.45,1007 C177.877,1007 0,783.871 0,538.898 C0,10.924 865.677,0 1116.12,0 Z"></path></clipPath><linearGradient id="i3" x1="277.349365px" y1="397.896973px" x2="1225.12256px" y2="32.0314331px" gradientUnits="userSpaceOnUse"><stop stop-color="#FD9253" offset="0%"></stop><stop stop-color="#F1706B" offset="100%"></stop></linearGradient></defs><g clip-path="url(#i0)"><polygon points="0,0 1920,0 1920,447 0,447 0,0" stroke="none" fill="url(#i1)"></polygon></g><g clip-path="url(#i0)"><g transform="translate(331.0 47.0)"><g clip-path="url(#i2)"><polygon points="0,0 1259,0 1259,400 0,400 0,0" stroke="none" fill="url(#i3)"></polygon></g></g></g></svg>