<?xml version="1.0" encoding="UTF-8"?><svg version="1.1" width="1920px" height="447px" viewBox="0 0 1920.0 447.0" xmlns="http://www.w3.org/2000/svg" xmlns:xlink="http://www.w3.org/1999/xlink"><defs><clipPath id="i0"><path d="M1920,0 L1920,447 L0,447 L0,0 L1920,0 Z"></path></clipPath><linearGradient id="i1" x1="0px" y1="447px" x2="1920px" y2="0px" gradientUnits="userSpaceOnUse"><stop stop-color="#E33EA9" offset="0%"></stop><stop stop-color="#FF5086" offset="51.7941308%"></stop><stop stop-color="#FF8B42" offset="100%"></stop></linearGradient><clipPath id="i2"><path d="M1259,0 C1259,760.654 831.06,1007 495.45,1007 C177.877,1007 0,783.871 0,538.898 C0,10.924 865.677,0 1116.12,0 Z"></path></clipPath><linearGradient id="i3" x1="33.6641846px" y1="479.891113px" x2="1217.00977px" y2="41.8596191px" gradientUnits="userSpaceOnUse"><stop stop-color="#FF0DA2" offset="0%"></stop><stop stop-color="#FF8052" offset="54.1747341%"></stop><stop stop-color="#FF8C41" offset="100%"></stop></linearGradient></defs><g clip-path="url(#i0)"><polygon points="0,0 1920,0 1920,447 0,447 0,0" stroke="none" fill="url(#i1)"></polygon></g><g clip-path="url(#i0)"><g transform="translate(331.0 47.0)"><g clip-path="url(#i2)"><polygon points="0,0 1259,0 1259,400 0,400 0,0" stroke="none" fill="url(#i3)"></polygon></g></g></g></svg>