<?xml version="1.0" standalone="no"?>
<!DOCTYPE svg PUBLIC "-//W3C//DTD SVG 20010904//EN"
 "http://www.w3.org/TR/2001/REC-SVG-20010904/DTD/svg10.dtd">
<svg version="1.0" xmlns="http://www.w3.org/2000/svg"
 width="548.000000pt" height="548.000000pt" viewBox="0 0 548.000000 548.000000"
 preserveAspectRatio="xMidYMid meet">
<metadata>
Created by potrace 1.14, written by Peter Selinger 2001-2017
</metadata>
<g transform="translate(0.000000,548.000000) scale(0.100000,-0.100000)"
fill="#000000" stroke="none">
<path d="M4028 4385 c-2 -1 -75 -6 -163 -10 -88 -3 -180 -8 -205 -10 -204 -14
-231 -16 -365 -31 -53 -5 -190 -22 -240 -29 -16 -2 -52 -7 -80 -11 -27 -3 -57
-7 -65 -9 -8 -1 -35 -6 -60 -10 -25 -4 -54 -9 -65 -11 -11 -2 -40 -7 -65 -10
-25 -3 -48 -8 -51 -10 -4 -2 -24 -6 -45 -9 -22 -4 -65 -13 -97 -21 -32 -7 -73
-16 -90 -19 -18 -3 -40 -8 -49 -11 -9 -3 -25 -7 -35 -9 -57 -12 -229 -60 -326
-91 -343 -111 -646 -260 -873 -430 -74 -56 -224 -198 -288 -273 -127 -150
-252 -411 -285 -596 -6 -33 -14 -78 -18 -100 -10 -54 -10 -355 0 -430 21 -157
81 -367 143 -500 26 -56 117 -217 136 -240 4 -5 36 -46 71 -90 135 -170 342
-334 543 -431 158 -76 371 -138 579 -169 67 -10 446 -14 515 -5 36 5 90 11
120 15 139 16 396 84 555 147 242 96 476 233 670 393 161 133 357 345 480 519
114 161 270 451 339 631 15 39 31 79 36 90 21 46 115 348 126 405 3 14 12 52
21 85 8 33 17 69 19 80 2 11 6 31 9 45 11 53 16 79 35 195 23 146 34 231 46
355 3 36 8 81 10 100 2 19 7 142 10 273 l7 238 -501 -2 c-275 0 -502 -2 -504
-4z"/>
</g>
</svg>
