<svg xmlns="http://www.w3.org/2000/svg" width="14" height="14" viewBox="0 0 14 14">
        <g  fill-rule="nonzero">
            <path d="M7 0C3.134 0 0 3.134 0 7s3.134 7 7 7 7-3.133 7-7c0-3.866-3.134-7-7-7zm0 12.687c-3.141 0-5.687-2.546-5.687-5.687 0-3.141 2.546-5.687 5.687-5.687 3.141 0 5.687 2.546 5.687 5.687 0 3.141-2.546 5.687-5.687 5.687zM7 3.07c-.5 0-.88.262-.88.684V7.63c0 .423.379.684.88.684.49 0 .881-.271.881-.684V3.754c0-.412-.391-.684-.88-.684zm0 6.118c-.481 0-.873.392-.873.874 0 .48.392.873.873.873.482 0 .874-.392.874-.873 0-.483-.392-.874-.874-.874z" transform="translate(-1262.000000, -2691.000000) translate(1262.000000, 2691.000000)"/>
        </g>
</svg>