<?xml version="1.0" encoding="UTF-8"?>
<svg width="331px" height="97px" viewBox="0 0 331 97" version="1.1" xmlns="http://www.w3.org/2000/svg" xmlns:xlink="http://www.w3.org/1999/xlink">
    <title>Group</title>
    <defs>
        <polygon id="path-1" points="118.439151 0.313082728 118.439151 95.0686125 9.90298047e-05 95.0686125 9.90298047e-05 0.313082728"></polygon>
    </defs>
    <g id="Symbols" stroke="none" stroke-width="1" fill="none" fill-rule="evenodd">
        <g id="Footer" transform="translate(-241.000000, -60.000000)">
            <g id="Group" transform="translate(241.000000, 60.000000)">
                <g id="Page-1">
                    <g id="Group-3" transform="translate(0.000000, 0.182215)">
                        <path d="M104.997935,0.313082728 C81.4377541,0.313082728 9.90298047e-05,1.3410121 9.90298047e-05,51.0217894 C9.90298047e-05,74.072957 16.7336603,95.068761 46.6089718,95.068761 C78.1811589,95.068761 118.43925,71.8883595 118.43925,0.313082728 L104.997935,0.313082728 Z" id="footer-logo-background" fill="#3FB91E" ></path>
                    </g>
                    <path d="M26.6222319,47.9587975 C26.6222319,46.5337586 26.3380164,45.4568095 25.7572066,44.7324065 C25.1793677,44.0080035 24.326721,43.6490204 23.1953055,43.6490204 C22.1030068,43.6490204 21.2617486,44.0441493 20.6690552,44.8373781 C20.0709152,45.6271408 19.7743209,46.7526145 19.7743209,48.2068672 C19.7743209,49.5180218 20.0823036,50.5513978 20.6962884,51.3025389 C21.3068071,52.0566508 22.1475702,52.4309835 23.2131309,52.4309835 C24.2935461,52.4309835 25.1348042,52.0447672 25.7299734,51.269859 C26.3231619,50.4944557 26.6222319,49.389283 26.6222319,47.9587975 L26.6222319,47.9587975 Z M28.5315265,37.9622339 L28.5315265,53.7540217 L26.5563771,53.7540217 L26.5563771,52.3443324 C26.0627135,52.9489094 25.5056709,53.3975144 24.8832685,53.7000504 C24.2578953,54.0020913 23.5696382,54.1516263 22.818002,54.1516263 C21.2860109,54.1516263 20.0615073,53.6010206 19.1454817,52.4998092 C18.232922,51.4015687 17.7749092,49.9260246 17.7749092,48.0786236 C17.7749092,46.1930961 18.2358929,44.6903188 19.1519186,43.5772238 C20.0674491,42.4636336 21.2889818,41.9070861 22.818002,41.9070861 C23.6171725,41.9070861 24.3326628,42.0536503 24.9520943,42.3532154 C25.5685548,42.6493145 26.1072769,43.0954438 26.5563771,43.694079 L26.5563771,37.9622339 L28.5315265,37.9622339 Z" id="Fill-4" fill="#FFFFFF"></path>
                    <path d="M56.3749445,69.0775471 C55.7822511,69.8499795 54.9409929,70.2357006 53.8576069,70.2357006 C52.7890753,70.2357006 51.9512831,69.8588922 51.3377935,69.110722 C50.7243038,68.3536392 50.4187969,67.3237292 50.4187969,66.0130697 C50.4187969,64.5583219 50.7153912,63.4363142 51.3105603,62.6425903 C51.9062246,61.8498568 52.7474827,61.4547278 53.8397815,61.4547278 C54.9682261,61.4547278 55.8243388,61.8166818 56.4016825,62.5410848 C56.9765506,63.2654878 57.263737,64.3399612 57.263737,65.7645049 C57.263737,67.2014274 56.9676379,68.2996679 56.3749445,69.0775471 M57.2008531,55.3851911 L57.2008531,61.4963204 C56.7517529,60.9041221 56.2130308,60.455022 55.5935993,60.1589228 C54.971197,59.8623286 54.2646194,59.7098227 53.459507,59.7098227 C51.9364286,59.7098227 50.7119251,60.2693411 49.7934237,61.3859021 C48.8803689,62.4960262 48.4198803,63.9988035 48.4198803,65.884331 C48.4198803,67.7307417 48.8744271,69.2062858 49.7904528,70.3074972 C50.7030124,71.4062329 51.927516,71.9538677 53.459507,71.9538677 C54.2106481,71.9538677 54.9023713,71.8043327 55.5218027,71.5047676 C56.1471759,71.2056976 56.7071895,70.7506556 57.2008531,70.1520204 L57.2008531,71.5617097 L59.1764977,71.5617097 L59.1764977,55.8907383 C58.4486286,55.8248834 57.7935464,55.6545522 57.2008531,55.3851911" id="Fill-6" fill="#FFFFFF"></path>
                    <path d="M23.1861453,61.4516084 C22.0997883,61.4516084 21.2649671,61.8318828 20.6811864,62.5889657 C20.0914639,63.3460486 19.8013065,64.4264637 19.8013065,65.8331821 C19.8013065,67.2131624 20.1038426,68.2846649 20.7019826,69.0506605 C21.3006178,69.8196269 22.1389051,70.2028722 23.2069415,70.2028722 C24.3804447,70.2028722 25.24547,69.8528019 25.8049884,69.1491951 C26.3674777,68.4460835 26.6457515,67.3656683 26.6457515,65.9079496 C26.6457515,64.4353764 26.3585651,63.3252523 25.7688426,62.5770821 C25.1914988,61.8259411 24.3264735,61.4516084 23.1861453,61.4516084 L23.1861453,61.4516084 Z M19.965696,74.2046666 C20.3608249,74.3749979 20.8069542,74.5250281 21.3125014,74.6384172 C23.7788386,75.1895181 25.3380629,74.5037367 25.8708433,74.0278984 C26.4006527,73.5520602 26.5803918,72.7974531 26.5803918,71.7353585 L26.5803918,70.1642506 C26.1342625,70.7539731 25.6044531,71.1966363 25.002847,71.4962015 C24.3982701,71.7923006 23.7129838,71.9358938 22.9440174,71.9358938 C21.3907349,71.9358938 20.1454351,71.3793463 19.2026714,70.2538726 C18.2599076,69.1283989 17.7900112,67.6439421 17.7900112,65.7915896 C17.7900112,63.9625091 18.2599076,62.4929068 19.2086132,61.3827827 C20.1543478,60.2726586 21.4055894,59.7156159 22.9618428,59.7156159 C23.7159547,59.7156159 24.3834156,59.86218 24.9612545,60.1528325 C25.5326565,60.4400189 26.0684077,60.9039736 26.5591004,61.5382595 L26.5591004,59.7156159 L28.5317741,59.7156159 L28.5317741,71.3164624 C28.5317741,73.0881056 28.109412,74.3690561 27.268649,75.1563431 C26.4273908,75.94363 25.0211675,76.3382638 23.1861453,76.3382638 C23.1861453,76.3382638 20.8307214,76.4462063 18.6877164,75.4791802 L19.965696,74.2046666 Z" id="Fill-8" fill="#FFFFFF"></path>
                    <path d="M80.2194399,71.5617592 L80.2194399,64.2617772 C80.2194399,63.1036236 80.0431668,62.2985113 79.6836886,61.8528772 C79.3276765,61.4097188 78.7141869,61.1883872 77.8491615,61.1883872 C76.7355714,61.1883872 75.8764878,61.5028068 75.2629982,62.1311509 C74.6495085,62.759495 74.3444967,63.6512584 74.3444967,64.8039653 L74.3444967,71.5617592 L72.3569685,71.5617592 L72.3569685,59.7217558 L74.365293,59.7217558 L74.365293,61.3319804 C74.8203349,60.649665 75.2511146,60.2515652 75.8764878,59.9222911 C76.4993853,59.5870752 77.2267592,59.4251615 78.046726,59.4251615 C78.9384894,59.4251615 79.6836886,59.5603372 80.2971783,59.8296983 C80.907697,60.0960884 81.3508554,60.496664 81.6831004,61.0353861 C81.8687813,61.3230677 81.9970249,61.6582836 82.0782293,62.0410338 C82.1648804,62.4302209 82.2005311,63.0407397 82.2005311,63.879027 L82.2005311,64.4415163 L82.2005311,71.5617592 L80.2194399,71.5617592 Z" id="Fill-10" fill="#FFFFFF"></path>
                    <path d="M54.4982802,52.1228027 C54.2105986,52.1406281 53.989267,52.1525117 53.9476745,52.1525117 C53.5495746,52.1525117 53.2742718,52.0658606 53.1247368,51.8890924 C52.9747066,51.7157902 52.8999391,51.3657199 52.8999391,50.8418522 L52.8999391,43.8795618 L54.8785546,43.8795618 L54.8785546,41.9068881 L52.8999391,41.9068881 L52.8999391,37.9595601 L52.5978982,37.9595601 L50.9337024,37.9595601 L50.9337024,51.5093131 C50.9337024,52.4223679 51.1223541,53.0536829 51.4932208,53.4126659 C51.8616116,53.7657072 52.510752,53.9454463 53.4356904,53.9454463 C53.5911672,53.9454463 54.6567279,53.8736497 55.2821011,53.8226493 C55.0399732,53.4933752 54.8453796,53.1343922 54.6958446,52.7452051 C54.6181062,52.5446697 54.5492805,52.3381926 54.4982802,52.1228027" id="Fill-12" fill="#FFFFFF"></path>
                    <path d="M63.7523678,49.6146749 C63.7523678,50.425729 63.4260646,51.090219 62.7620698,51.6111157 C62.1005507,52.1315174 61.2533507,52.3949366 60.220965,52.3949366 C59.5594459,52.3949366 59.0474618,52.2394598 58.6914497,51.934448 C58.3319715,51.6254751 58.1586693,51.1887536 58.1586693,50.6203225 C58.1586693,50.0484254 58.3082043,49.6146749 58.616187,49.3146146 C58.921694,49.0155446 59.4212993,48.8056014 60.1219352,48.6951831 C60.3432668,48.6590373 60.6789779,48.6144738 61.1186702,48.5540657 C62.3634748,48.3985889 63.2438498,48.1802282 63.7523678,47.9049253 L63.7523678,49.6146749 Z M58.5265651,45.2504314 C58.6374784,44.7953894 58.8711888,44.4032314 59.191055,44.1516957 C59.6401552,43.7956835 60.310587,43.6189153 61.2023504,43.6189153 C62.0614339,43.6189153 62.7080986,43.7654795 63.1359073,44.0556368 C63.5607452,44.3492602 63.776135,44.7894476 63.776135,45.3732283 C63.776135,45.8337169 63.7375134,46.136253 63.6716586,46.2739044 C63.5968911,46.4145267 63.4503269,46.524945 63.2314711,46.6091203 C63.0131104,46.7017132 62.4144752,46.8002478 61.4360607,46.8963067 C60.8641636,46.9621616 60.4150634,47.0131619 60.0803427,47.0488126 C58.7632463,47.219639 57.7813658,47.5999135 57.1381672,48.1891408 C56.4915026,48.7848051 56.1681703,49.5998204 56.1681703,50.6411188 C56.1681703,51.7155922 56.4974444,52.5563552 57.1530217,53.1673691 C57.808599,53.774917 58.7211586,54.0799288 59.885254,54.0799288 C60.642832,54.0799288 61.3553514,53.9214811 62.0312298,53.6100323 C62.7046325,53.2961079 63.3394136,52.8257163 63.9380487,52.1973722 C63.9380487,52.1973722 64.0727293,54.1819295 66.7242523,53.7565965 L66.7242523,52.2424307 C65.7339542,52.2424307 65.7339542,51.0813063 65.7339542,51.0813063 L65.7339542,45.4564134 C65.7339542,44.2388419 65.3715052,43.3436125 64.6471021,42.7722105 C63.9231943,42.1973425 62.7977205,41.9101561 61.2652343,41.9101561 C59.8377197,41.9101561 58.7241295,42.2483429 57.9101045,42.9128328 C57.4342663,43.3079618 57.0782542,43.8253925 56.8623692,44.4210568 L58.5265651,45.2504314 Z" id="Fill-14" fill="#FFFFFF"></path>
                    <path d="M37.4086573,67.419491 C37.4086573,68.2305451 37.0764123,68.898006 36.4148932,69.4159319 C35.7533741,69.9393044 34.9096401,70.1967819 33.8737884,70.1967819 C33.2097935,70.1967819 32.7007804,70.044276 32.3477391,69.7392642 C31.9882609,69.4337573 31.8149587,68.9940649 31.8149587,68.4251387 C31.8149587,67.8537367 31.9644938,67.419491 32.2665347,67.120421 C32.5750125,66.821351 33.0810548,66.6173496 33.7782246,66.5034653 C33.9936145,66.4648437 34.3288303,66.4197852 34.7719887,66.3633382 C36.0197643,66.2043953 36.8937023,65.9890055 37.4086573,65.7107318 L37.4086573,67.419491 Z M32.1798836,63.0557427 C32.2937679,62.6036716 32.5240121,62.2090379 32.8443736,61.9634439 C33.2964446,61.6039658 33.9668764,61.4247218 34.8556689,61.4247218 C35.7147525,61.4247218 36.3609219,61.5742568 36.7921967,61.8649093 C37.2170346,62.1550666 37.4294535,62.5947589 37.4294535,63.1785396 C37.4294535,63.6424943 37.3938028,63.9445352 37.3220062,64.0856527 C37.2531805,64.2203332 37.1066164,64.3337223 36.8877605,64.4208685 C36.6664289,64.5134614 36.0677937,64.6090252 35.091855,64.7050841 C34.5234239,64.7709389 34.068382,64.8214441 33.736137,64.85759 C32.4165648,65.0279212 31.4346843,65.4081957 30.7914857,66.0008891 C30.147792,66.5906116 29.8244597,67.4076075 29.8244597,68.449401 C29.8244597,69.5209035 30.1537338,70.3646374 30.8093111,70.9721853 C31.4614223,71.582704 32.3744771,71.8877158 33.5415434,71.8877158 C34.2991214,71.8877158 35.0111457,71.7292681 35.6815775,71.4153437 C36.357951,71.1038949 36.995703,70.6339985 37.5913673,70.0056544 C37.5913673,70.0056544 37.7260478,71.9897165 40.3745999,71.5648787 L40.3745999,70.0472469 C39.3838067,70.0472469 39.3838067,68.8861224 39.3838067,68.8861224 L39.3838067,63.2651907 C39.3838067,62.0471241 39.0248237,61.1523898 38.3004207,60.5775218 C37.5794837,60.0061199 36.4540099,59.7154674 34.9244946,59.7154674 C33.4940091,59.7154674 32.3744771,60.0511784 31.5663939,60.7216102 C31.0875848,61.1132731 30.7340484,61.6341698 30.5186586,62.2298341 L32.1798836,63.0557427 Z" id="Fill-16" fill="#FFFFFF"></path>
                    <path d="M42.3499969,71.5617592 L42.3499969,60.7066072 L44.3281173,59.709377 L44.3281173,61.8320809 C44.6455078,61.0388522 45.0079569,60.4431879 45.543213,60.048059 C46.0883721,59.6559009 46.7553378,59.4583365 47.5396539,59.4583365 C47.6891889,59.4583365 48.0125212,59.4880454 48.078376,59.4880454 C48.1442308,59.4939872 48.2100856,59.5028999 48.2759405,59.5182495 L48.2759405,61.6161959 C48.2249401,61.6043124 48.1655222,61.6013415 48.0991723,61.5983706 C48.0338126,61.5924288 47.7164221,61.5681665 47.5876833,61.5681665 C46.5250935,61.5681665 45.7140394,61.8553529 45.1604628,62.4361627 C44.6034202,63.0140016 44.3251464,63.8517938 44.3251464,64.9564712 L44.3251464,71.5617592 L42.3499969,71.5617592 Z" id="Fill-18" fill="#FFFFFF"></path>
                    <polygon id="Fill-20" fill="#FFFFFF" points="68.6999464 53.7538731 70.6691541 53.7538731 70.6691541 37.9620853 68.6999464 37.9620853"></polygon>
                    <path d="M62.5911444,64.615165 L68.9840134,64.615165 C68.9780716,63.5288081 68.6997979,62.6994335 68.1581048,62.1102061 C67.6164118,61.5204836 66.8410084,61.2209185 65.8413025,61.2209185 C64.8777426,61.2209185 64.1206597,61.5086 63.5670831,62.0918856 C63.0100404,62.6726954 62.6837372,63.5080118 62.5911444,64.615165 L62.5911444,64.615165 Z M69.7831839,71.1996567 C67.8857729,72.0136817 65.7784186,71.8879139 65.7784186,71.8879139 C64.1592813,71.8879139 62.8842726,71.3462208 61.9474506,70.256893 C61.0170656,69.170536 60.5471692,67.6860793 60.5471692,65.8094645 C60.5471692,63.8219363 61.0111238,62.2716247 61.9355671,61.1585297 C62.8634763,60.0419686 64.1473977,59.4824502 65.7784186,59.4824502 C67.4515272,59.4824502 68.7478273,59.9969101 69.660387,61.0238492 C70.5793836,62.0562349 71.0373964,63.6724013 71.0373964,65.5490161 C71.0373964,65.7886682 71.0373964,65.9649413 71.0309595,66.0788255 C71.0279886,66.1981565 71.0190759,66.482372 71.0071923,66.5903145 L62.6030279,66.5903145 C62.5852026,67.6167584 62.9293311,68.4283077 63.5160827,69.0987394 C64.1028343,69.7691712 64.9198302,70.1132998 65.9611286,70.1043871 C65.9611286,70.1043871 67.0682818,70.1459796 68.3794364,69.7959093 L69.7831839,71.1996567 Z" id="Fill-22" fill="#FFFFFF"></path>
                    <path d="M39.6621795,43.6428806 C38.5787934,43.6428806 37.7410013,44.023155 37.1572206,44.7802379 C36.5734399,45.5373207 36.2803117,46.4290841 36.2803117,47.8362976 C36.2803117,49.2157828 36.5798768,50.0996238 37.1780169,50.8656194 C37.776652,51.6350809 38.6149393,52.0178311 39.6859467,52.0178311 C40.8535081,52.0178311 41.7244752,51.6677608 42.2844887,50.9611831 C42.843512,50.2610424 43.1222809,49.3712596 43.1222809,47.9110651 C43.1222809,46.4414628 42.8316284,45.5194954 42.2513137,44.7683543 C41.6705039,44.0201841 40.8054786,43.6428806 39.6621795,43.6428806 L39.6621795,43.6428806 Z M36.4422254,55.6844097 C36.8398301,55.8577118 37.2829884,56.0107129 37.7885356,56.124102 C40.2548729,56.6776786 41.8200389,55.9834797 42.3498484,55.5135832 C42.876687,55.037745 43.0381055,54.2836331 43.0381055,53.2180724 L43.0381055,52.0391226 C42.5835587,52.6313208 42.0804873,53.0145661 41.4788813,53.3081895 C40.8772752,53.6072595 40.1860472,53.7538236 39.4165856,53.7538236 C37.8667691,53.7538236 36.6244402,53.1943052 35.6787056,52.0688315 C34.7359419,50.9433578 34.2630745,49.641611 34.2630745,47.79421 C34.2630745,45.9651295 34.7389128,44.6846741 35.6816765,43.5740548 C36.630382,42.4639307 37.8816236,41.909859 39.437877,41.909859 C40.1979307,41.909859 40.8594498,42.0539473 41.4372888,42.3441047 C42.0116616,42.634262 42.544442,43.0952457 43.0381055,43.7329977 L43.0381055,41.909859 L45.0078084,41.909859 L45.0078084,52.8021472 C45.0078084,54.5737904 44.5854462,55.85177 43.7476541,56.6420279 C42.903425,57.4293148 41.4972018,57.8244437 39.6651504,57.8244437 C39.6651504,57.8244437 37.3067556,57.9289202 35.1607797,56.9653602 L36.4422254,55.6844097 Z" id="Fill-23" fill="#FFFFFF"></path>
                    <polygon id="Fill-24" fill="#FFFFFF" points="46.9861763 53.7538731 48.9583548 53.7538731 48.9583548 41.9069376 46.9861763 41.9069376"></polygon>
                    <polygon id="Fill-25" fill="#FFFFFF" points="30.5071216 53.7538731 32.4822711 53.7538731 32.4822711 41.9069376 30.5071216 41.9069376"></polygon>
                    <path d="M32.634876,39.0697832 C32.634876,39.7010982 32.126358,40.2130823 31.4915769,40.2130823 C30.8632328,40.2130823 30.3512487,39.7010982 30.3512487,39.0697832 C30.3512487,38.4384682 30.8632328,37.9264841 31.4915769,37.9264841 C32.126358,37.9264841 32.634876,38.4384682 32.634876,39.0697832" id="Fill-26" fill="#FFFFFF"></path>
                    <path d="M49.1140297,39.0697832 C49.1140297,39.7010982 48.6050165,40.2130823 47.9707306,40.2130823 C47.3418913,40.2130823 46.8304024,39.7010982 46.8304024,39.0697832 C46.8304024,38.4384682 47.3418913,37.9264841 47.9707306,37.9264841 C48.6050165,37.9264841 49.1140297,38.4384682 49.1140297,39.0697832" id="Fill-27" fill="#FFFFFF"></path>
                </g>
                <path d="M185.58,53 L185.58,47.54 L190.38,39 L187.26,39 L184.22,44.84 L181.18,39 L178.06,39 L182.84,47.54 L182.84,53 L185.58,53 Z M193.96,53.28 C195.44,53.28 196.693333,52.7733333 197.72,51.76 C198.746667,50.7333333 199.26,49.48 199.26,48 C199.26,46.52 198.746667,45.27 197.72,44.25 C196.693333,43.23 195.44,42.72 193.96,42.72 C192.48,42.72 191.23,43.23 190.21,44.25 C189.19,45.27 188.68,46.52 188.68,48 C188.68,49.48 189.19,50.73 190.21,51.75 C191.23,52.77 192.48,53.28 193.96,53.28 Z M193.96,50.76 C193.186667,50.76 192.54,50.5 192.02,49.98 C191.513333,49.46 191.26,48.8 191.26,48 C191.26,47.2 191.516667,46.54 192.03,46.02 C192.543333,45.5 193.186667,45.24 193.96,45.24 C194.733333,45.24 195.38,45.5 195.9,46.02 C196.42,46.54 196.68,47.2 196.68,48 C196.68,48.8 196.42,49.46 195.9,49.98 C195.38,50.5 194.733333,50.76 193.96,50.76 Z M204.3,53.28 C205.66,53.28 206.653333,52.8133333 207.28,51.88 L207.28,51.88 L207.28,53 L209.86,53 L209.86,43 L207.28,43 L207.28,48.4 C207.28,49.2266667 207.08,49.8466667 206.68,50.26 C206.28,50.6733333 205.746667,50.88 205.08,50.88 C204.48,50.88 204,50.7033333 203.64,50.35 C203.28,49.9966667 203.1,49.4866667 203.1,48.82 L203.1,48.82 L203.1,43 L200.52,43 L200.52,49.14 C200.52,50.4333333 200.876667,51.4466667 201.59,52.18 C202.303333,52.9133333 203.206667,53.28 204.3,53.28 Z M214.4,53 L214.4,48.22 C214.4,47.26 214.71,46.5733333 215.33,46.16 C215.95,45.7466667 216.653333,45.5866667 217.44,45.68 L217.44,45.68 L217.44,42.8 C216.76,42.8 216.143333,42.96 215.59,43.28 C215.036667,43.6 214.64,44.08 214.4,44.72 L214.4,44.72 L214.4,43 L211.82,43 L211.82,53 L214.4,53 Z M227.48,53.28 C228.88,53.28 229.96,52.7933333 230.72,51.82 L230.72,51.82 L230.72,53 L233.3,53 L233.3,39 L230.72,39 L230.72,44.18 C229.96,43.2066667 228.88,42.72 227.48,42.72 C226.133333,42.72 224.983333,43.23 224.03,44.25 C223.076667,45.27 222.6,46.52 222.6,48 C222.6,49.48 223.076667,50.73 224.03,51.75 C224.983333,52.77 226.133333,53.28 227.48,53.28 Z M227.96,50.82 C227.16,50.82 226.493333,50.56 225.96,50.04 C225.44,49.5066667 225.18,48.8266667 225.18,48 C225.18,47.1733333 225.443333,46.4966667 225.97,45.97 C226.496667,45.4433333 227.16,45.18 227.96,45.18 C228.76,45.18 229.42,45.4433333 229.94,45.97 C230.46,46.4966667 230.72,47.1733333 230.72,48 C230.72,48.8266667 230.46,49.5033333 229.94,50.03 C229.42,50.5566667 228.76,50.82 227.96,50.82 Z M236.54,41.8 C236.98,41.8 237.356667,41.6433333 237.67,41.33 C237.983333,41.0166667 238.14,40.6466667 238.14,40.22 C238.14,39.7933333 237.983333,39.42 237.67,39.1 C237.356667,38.78 236.98,38.62 236.54,38.62 C236.113333,38.62 235.743333,38.78 235.43,39.1 C235.116667,39.42 234.96,39.7933333 234.96,40.22 C234.96,40.6466667 235.116667,41.0166667 235.43,41.33 C235.743333,41.6433333 236.113333,41.8 236.54,41.8 Z M237.84,53 L237.84,43 L235.26,43 L235.26,53 L237.84,53 Z M244.76,57.28 C246.2,57.28 247.43,56.8733333 248.45,56.06 C249.47,55.2466667 249.98,54.0666667 249.98,52.52 L249.98,52.52 L249.98,43 L247.46,43 L247.46,44.24 C246.7,43.2266667 245.633333,42.72 244.26,42.72 C242.86,42.72 241.68,43.22 240.72,44.22 C239.76,45.22 239.28,46.4266667 239.28,47.84 C239.28,49.2666667 239.756667,50.4766667 240.71,51.47 C241.663333,52.4633333 242.846667,52.96 244.26,52.96 C245.633333,52.96 246.7,52.4533333 247.46,51.44 L247.46,51.44 L247.46,52.52 C247.46,53.3066667 247.226667,53.9133333 246.76,54.34 C246.293333,54.7666667 245.653333,54.98 244.84,54.98 C243.6,54.98 242.726667,54.5133333 242.22,53.58 L242.22,53.58 L240.02,54.84 C240.46,55.64 241.09,56.2466667 241.91,56.66 C242.73,57.0733333 243.68,57.28 244.76,57.28 Z M244.66,50.58 C243.846667,50.58 243.173333,50.3266667 242.64,49.82 C242.12,49.3 241.86,48.64 241.86,47.84 C241.86,47.0533333 242.123333,46.4033333 242.65,45.89 C243.176667,45.3766667 243.846667,45.12 244.66,45.12 C245.473333,45.12 246.143333,45.3766667 246.67,45.89 C247.196667,46.4033333 247.46,47.0533333 247.46,47.84 C247.46,48.64 247.196667,49.2966667 246.67,49.81 C246.143333,50.3233333 245.473333,50.58 244.66,50.58 Z M253.2,41.8 C253.64,41.8 254.016667,41.6433333 254.33,41.33 C254.643333,41.0166667 254.8,40.6466667 254.8,40.22 C254.8,39.7933333 254.643333,39.42 254.33,39.1 C254.016667,38.78 253.64,38.62 253.2,38.62 C252.773333,38.62 252.403333,38.78 252.09,39.1 C251.776667,39.42 251.62,39.7933333 251.62,40.22 C251.62,40.6466667 251.776667,41.0166667 252.09,41.33 C252.403333,41.6433333 252.773333,41.8 253.2,41.8 Z M254.5,53 L254.5,43 L251.92,43 L251.92,53 L254.5,53 Z M258.43,52.5 C259.156667,53.0333333 260.406667,53.2 262.18,53 L262.18,53 L262.18,50.66 C261.686667,50.6866667 261.273333,50.69 260.94,50.67 C260.606667,50.65 260.353333,50.56 260.18,50.4 C260.006667,50.24 259.92,49.9866667 259.92,49.64 L259.92,49.64 L259.92,45.48 L262.18,45.48 L262.18,43 L259.92,43 L259.92,40.2 L257.34,40.98 L257.34,43 L255.6,43 L255.6,45.48 L257.34,45.48 L257.34,49.64 C257.34,51.0133333 257.703333,51.9666667 258.43,52.5 Z M267.64,53.28 C269.04,53.28 270.126667,52.7933333 270.9,51.82 L270.9,51.82 L270.9,53 L273.48,53 L273.48,43 L270.9,43 L270.9,44.18 C270.126667,43.2066667 269.04,42.72 267.64,42.72 C266.306667,42.72 265.163333,43.23 264.21,44.25 C263.256667,45.27 262.78,46.52 262.78,48 C262.78,49.48 263.256667,50.73 264.21,51.75 C265.163333,52.77 266.306667,53.28 267.64,53.28 Z M268.12,50.82 C267.32,50.82 266.66,50.56 266.14,50.04 C265.62,49.5066667 265.36,48.8266667 265.36,48 C265.36,47.1733333 265.62,46.4966667 266.14,45.97 C266.66,45.4433333 267.32,45.18 268.12,45.18 C268.92,45.18 269.583333,45.4433333 270.11,45.97 C270.636667,46.4966667 270.9,47.1733333 270.9,48 C270.9,48.8266667 270.636667,49.5033333 270.11,50.03 C269.583333,50.5566667 268.92,50.82 268.12,50.82 Z M278,53 L278,38.4 L275.42,38.4 L275.42,53 L278,53 Z M181.15,72.5 C181.876667,73.0333333 183.126667,73.2 184.9,73 L184.9,73 L184.9,70.66 C184.406667,70.6866667 183.993333,70.69 183.66,70.67 C183.326667,70.65 183.073333,70.56 182.9,70.4 C182.726667,70.24 182.64,69.9866667 182.64,69.64 L182.64,69.64 L182.64,65.48 L184.9,65.48 L184.9,63 L182.64,63 L182.64,60.2 L180.06,60.98 L180.06,63 L178.32,63 L178.32,65.48 L180.06,65.48 L180.06,69.64 C180.06,71.0133333 180.423333,71.9666667 181.15,72.5 Z M188.9,73 L188.9,67.6 C188.9,66.7733333 189.1,66.1533333 189.5,65.74 C189.9,65.3266667 190.433333,65.12 191.1,65.12 C191.7,65.12 192.18,65.2966667 192.54,65.65 C192.9,66.0033333 193.08,66.5133333 193.08,67.18 L193.08,67.18 L193.08,73 L195.66,73 L195.66,66.86 C195.66,65.5666667 195.303333,64.5533333 194.59,63.82 C193.876667,63.0866667 192.973333,62.72 191.88,62.72 C190.52,62.72 189.526667,63.1866667 188.9,64.12 L188.9,64.12 L188.9,59 L186.32,59 L186.32,73 L188.9,73 Z M202.22,73.28 C203.7,73.28 204.953333,72.7733333 205.98,71.76 C207.006667,70.7333333 207.52,69.48 207.52,68 C207.52,66.52 207.006667,65.27 205.98,64.25 C204.953333,63.23 203.7,62.72 202.22,62.72 C200.74,62.72 199.49,63.23 198.47,64.25 C197.45,65.27 196.94,66.52 196.94,68 C196.94,69.48 197.45,70.73 198.47,71.75 C199.49,72.77 200.74,73.28 202.22,73.28 Z M202.22,70.76 C201.446667,70.76 200.8,70.5 200.28,69.98 C199.773333,69.46 199.52,68.8 199.52,68 C199.52,67.2 199.776667,66.54 200.29,66.02 C200.803333,65.5 201.446667,65.24 202.22,65.24 C202.993333,65.24 203.64,65.5 204.16,66.02 C204.68,66.54 204.94,67.2 204.94,68 C204.94,68.8 204.68,69.46 204.16,69.98 C203.64,70.5 202.993333,70.76 202.22,70.76 Z M212.56,73.28 C213.92,73.28 214.913333,72.8133333 215.54,71.88 L215.54,71.88 L215.54,73 L218.12,73 L218.12,63 L215.54,63 L215.54,68.4 C215.54,69.2266667 215.34,69.8466667 214.94,70.26 C214.54,70.6733333 214.006667,70.88 213.34,70.88 C212.74,70.88 212.26,70.7033333 211.9,70.35 C211.54,69.9966667 211.36,69.4866667 211.36,68.82 L211.36,68.82 L211.36,63 L208.78,63 L208.78,69.14 C208.78,70.4333333 209.136667,71.4466667 209.85,72.18 C210.563333,72.9133333 211.466667,73.28 212.56,73.28 Z M225.04,77.28 C226.48,77.28 227.71,76.8733333 228.73,76.06 C229.75,75.2466667 230.26,74.0666667 230.26,72.52 L230.26,72.52 L230.26,63 L227.74,63 L227.74,64.24 C226.98,63.2266667 225.913333,62.72 224.54,62.72 C223.14,62.72 221.96,63.22 221,64.22 C220.04,65.22 219.56,66.4266667 219.56,67.84 C219.56,69.2666667 220.036667,70.4766667 220.99,71.47 C221.943333,72.4633333 223.126667,72.96 224.54,72.96 C225.913333,72.96 226.98,72.4533333 227.74,71.44 L227.74,71.44 L227.74,72.52 C227.74,73.3066667 227.506667,73.9133333 227.04,74.34 C226.573333,74.7666667 225.933333,74.98 225.12,74.98 C223.88,74.98 223.006667,74.5133333 222.5,73.58 L222.5,73.58 L220.3,74.84 C220.74,75.64 221.37,76.2466667 222.19,76.66 C223.01,77.0733333 223.96,77.28 225.04,77.28 Z M224.94,70.58 C224.126667,70.58 223.453333,70.3266667 222.92,69.82 C222.4,69.3 222.14,68.64 222.14,67.84 C222.14,67.0533333 222.403333,66.4033333 222.93,65.89 C223.456667,65.3766667 224.126667,65.12 224.94,65.12 C225.753333,65.12 226.423333,65.3766667 226.95,65.89 C227.476667,66.4033333 227.74,67.0533333 227.74,67.84 C227.74,68.64 227.476667,69.2966667 226.95,69.81 C226.423333,70.3233333 225.753333,70.58 224.94,70.58 Z M234.78,73 L234.78,67.6 C234.78,66.7733333 234.98,66.1533333 235.38,65.74 C235.78,65.3266667 236.313333,65.12 236.98,65.12 C237.58,65.12 238.06,65.2966667 238.42,65.65 C238.78,66.0033333 238.96,66.5133333 238.96,67.18 L238.96,67.18 L238.96,73 L241.54,73 L241.54,66.86 C241.54,65.5666667 241.183333,64.5533333 240.47,63.82 C239.756667,63.0866667 238.853333,62.72 237.76,62.72 C236.4,62.72 235.406667,63.1866667 234.78,64.12 L234.78,64.12 L234.78,59 L232.2,59 L232.2,73 L234.78,73 Z M245.31,72.5 C246.036667,73.0333333 247.286667,73.2 249.06,73 L249.06,73 L249.06,70.66 C248.566667,70.6866667 248.153333,70.69 247.82,70.67 C247.486667,70.65 247.233333,70.56 247.06,70.4 C246.886667,70.24 246.8,69.9866667 246.8,69.64 L246.8,69.64 L246.8,65.48 L249.06,65.48 L249.06,63 L246.8,63 L246.8,60.2 L244.22,60.98 L244.22,63 L242.48,63 L242.48,65.48 L244.22,65.48 L244.22,69.64 C244.22,71.0133333 244.583333,71.9666667 245.31,72.5 Z M257.82,77 L257.82,71.82 C258.58,72.7933333 259.66,73.28 261.06,73.28 C262.406667,73.28 263.556667,72.77 264.51,71.75 C265.463333,70.73 265.94,69.48 265.94,68 C265.94,66.52 265.463333,65.27 264.51,64.25 C263.556667,63.23 262.406667,62.72 261.06,62.72 C259.66,62.72 258.58,63.2066667 257.82,64.18 L257.82,64.18 L257.82,63 L255.24,63 L255.24,77 L257.82,77 Z M260.58,70.82 C259.78,70.82 259.12,70.56 258.6,70.04 C258.08,69.5066667 257.82,68.8266667 257.82,68 C257.82,67.1733333 258.08,66.4966667 258.6,65.97 C259.12,65.4433333 259.78,65.18 260.58,65.18 C261.38,65.18 262.043333,65.4433333 262.57,65.97 C263.096667,66.4966667 263.36,67.1733333 263.36,68 C263.36,68.8266667 263.096667,69.5033333 262.57,70.03 C262.043333,70.5566667 261.38,70.82 260.58,70.82 Z M271.7,73.28 C273.1,73.28 274.186667,72.7933333 274.96,71.82 L274.96,71.82 L274.96,73 L277.54,73 L277.54,63 L274.96,63 L274.96,64.18 C274.186667,63.2066667 273.1,62.72 271.7,62.72 C270.366667,62.72 269.223333,63.23 268.27,64.25 C267.316667,65.27 266.84,66.52 266.84,68 C266.84,69.48 267.316667,70.73 268.27,71.75 C269.223333,72.77 270.366667,73.28 271.7,73.28 Z M272.18,70.82 C271.38,70.82 270.72,70.56 270.2,70.04 C269.68,69.5066667 269.42,68.8266667 269.42,68 C269.42,67.1733333 269.68,66.4966667 270.2,65.97 C270.72,65.4433333 271.38,65.18 272.18,65.18 C272.98,65.18 273.643333,65.4433333 274.17,65.97 C274.696667,66.4966667 274.96,67.1733333 274.96,68 C274.96,68.8266667 274.696667,69.5033333 274.17,70.03 C273.643333,70.5566667 272.98,70.82 272.18,70.82 Z M282.06,73 L282.06,68.22 C282.06,67.26 282.37,66.5733333 282.99,66.16 C283.61,65.7466667 284.313333,65.5866667 285.1,65.68 L285.1,65.68 L285.1,62.8 C284.42,62.8 283.803333,62.96 283.25,63.28 C282.696667,63.6 282.3,64.08 282.06,64.72 L282.06,64.72 L282.06,63 L279.48,63 L279.48,73 L282.06,73 Z M288.45,72.5 C289.176667,73.0333333 290.426667,73.2 292.2,73 L292.2,73 L292.2,70.66 C291.706667,70.6866667 291.293333,70.69 290.96,70.67 C290.626667,70.65 290.373333,70.56 290.2,70.4 C290.026667,70.24 289.94,69.9866667 289.94,69.64 L289.94,69.64 L289.94,65.48 L292.2,65.48 L292.2,63 L289.94,63 L289.94,60.2 L287.36,60.98 L287.36,63 L285.62,63 L285.62,65.48 L287.36,65.48 L287.36,69.64 C287.36,71.0133333 287.723333,71.9666667 288.45,72.5 Z M296.36,73 L296.36,67.6 C296.36,66.7733333 296.56,66.1533333 296.96,65.74 C297.36,65.3266667 297.893333,65.12 298.56,65.12 C299.16,65.12 299.64,65.2966667 300,65.65 C300.36,66.0033333 300.54,66.5133333 300.54,67.18 L300.54,67.18 L300.54,73 L303.12,73 L303.12,66.86 C303.12,65.5666667 302.763333,64.5533333 302.05,63.82 C301.336667,63.0866667 300.433333,62.72 299.34,62.72 C297.98,62.72 296.986667,63.1866667 296.36,64.12 L296.36,64.12 L296.36,63 L293.78,63 L293.78,73 L296.36,73 Z M309.88,73.28 C311.8,73.28 313.253333,72.5666667 314.24,71.14 L314.24,71.14 L312.16,69.94 C311.653333,70.6066667 310.906667,70.94 309.92,70.94 C308.386667,70.94 307.446667,70.3133333 307.1,69.06 L307.1,69.06 L314.64,69.06 C314.706667,68.6866667 314.74,68.3333333 314.74,68 C314.74,66.5066667 314.263333,65.2533333 313.31,64.24 C312.356667,63.2266667 311.146667,62.72 309.68,62.72 C308.133333,62.72 306.866667,63.2233333 305.88,64.23 C304.893333,65.2366667 304.4,66.4933333 304.4,68 C304.4,69.52 304.9,70.78 305.9,71.78 C306.9,72.78 308.226667,73.28 309.88,73.28 Z M312.16,67.06 L307.06,67.06 C307.206667,66.42 307.506667,65.9233333 307.96,65.57 C308.413333,65.2166667 308.986667,65.04 309.68,65.04 C310.266667,65.04 310.79,65.2066667 311.25,65.54 C311.71,65.8733333 312.013333,66.38 312.16,67.06 L312.16,67.06 Z M318.72,73 L318.72,68.22 C318.72,67.26 319.03,66.5733333 319.65,66.16 C320.27,65.7466667 320.973333,65.5866667 321.76,65.68 L321.76,65.68 L321.76,62.8 C321.08,62.8 320.463333,62.96 319.91,63.28 C319.356667,63.6 318.96,64.08 318.72,64.72 L318.72,64.72 L318.72,63 L316.14,63 L316.14,73 L318.72,73 Z M326.06,73.28 C327.206667,73.28 328.163333,73.0033333 328.93,72.45 C329.696667,71.8966667 330.08,71.1066667 330.08,70.08 C330.08,69.4 329.903333,68.8333333 329.55,68.38 C329.196667,67.9266667 328.766667,67.6033333 328.26,67.41 C327.753333,67.2166667 327.246667,67.0566667 326.74,66.93 C326.233333,66.8033333 325.803333,66.6566667 325.45,66.49 C325.096667,66.3233333 324.92,66.1066667 324.92,65.84 C324.92,65.5866667 325.03,65.3866667 325.25,65.24 C325.47,65.0933333 325.746667,65.02 326.08,65.02 C326.826667,65.02 327.36,65.36 327.68,66.04 L327.68,66.04 L329.88,64.84 C329.493333,64.16 328.966667,63.6366667 328.3,63.27 C327.633333,62.9033333 326.893333,62.72 326.08,62.72 C325,62.72 324.096667,63.0033333 323.37,63.57 C322.643333,64.1366667 322.28,64.9133333 322.28,65.9 C322.28,66.5533333 322.456667,67.0966667 322.81,67.53 C323.163333,67.9633333 323.593333,68.28 324.1,68.48 C324.606667,68.68 325.113333,68.8466667 325.62,68.98 C326.126667,69.1133333 326.556667,69.2633333 326.91,69.43 C327.263333,69.5966667 327.44,69.8133333 327.44,70.08 C327.44,70.6533333 326.98,70.94 326.06,70.94 C325.046667,70.94 324.393333,70.5066667 324.1,69.64 L324.1,69.64 L321.86,70.9 C322.606667,72.4866667 324.006667,73.28 326.06,73.28 Z" id="Yourdigitalthoughtpartners" fill="#FFFFFF" fill-rule="nonzero"></path>
                <rect id="Rectangle" stroke="#979797" x="147.5" y="38.5" width="1" height="34"></rect>
            </g>
        </g>
    </g>
</svg>